# xmcd CD database file
#
# Track frame offsets:
#	150
#	67675
#	113737
#	186325
#
# Disc length: 3240 seconds
#
# Revision: 0
# Processed by: cddbd v1.5.1PL0 Copyright (c) Steve Scherf et al.
# Submitted via: CDex 1.51
#
DISCID=2c0ca604
DTITLE=Assif Tsahar Trio - Shekhina
DYEAR=1996
DGENRE=Jazz
TTITLE0=Saxifrage
TTITLE1=Hidden Heart
TTITLE2=Shekhina
TTITLE3=Impressions of a Messenger
EXTD=YEAR: 1996
EXTT0=
EXTT1=
EXTT2=
EXTT3=
PLAYORDER=
